<svg width="69" height="67" viewBox="0 0 69 67" fill="none" xmlns="http://www.w3.org/2000/svg">
<g clip-path="url(#clip0)">
<path d="M43.853 13.6156C32.1335 8.75897 18.7175 14.3313 13.8874 26.0617C9.05733 37.7921 14.6423 51.2385 26.3617 56.0951C38.0812 60.9517 51.4972 55.3794 56.3273 43.649C61.1573 31.9186 55.5724 18.4722 43.853 13.6156Z" fill="#FECE00"/>
<path d="M42.3268 17.322C32.6524 13.3129 21.5775 17.9128 17.5903 27.5962C13.6031 37.2796 18.2135 48.3796 27.8878 52.3888C37.5622 56.3979 48.6371 51.7979 52.6243 42.1145C56.6115 32.4311 52.0012 21.3311 42.3268 17.322Z" fill="white"/>
<path d="M41.5098 19.3062C32.9303 15.7508 23.1087 19.8302 19.5727 28.4177C16.0367 37.0053 20.1253 46.8491 28.7049 50.4045C37.2844 53.9599 47.106 49.8806 50.642 41.293C54.178 32.7054 50.0893 22.8616 41.5098 19.3062Z" fill="#FECE00"/>
<path d="M32.7356 22.3002C25.8904 23.6139 21.4135 30.2385 22.736 37.0967C24.0585 43.9549 30.6798 48.4496 37.5249 47.136C44.3701 45.8223 48.8471 39.1977 47.5245 32.3395C46.202 25.4813 39.5808 20.9865 32.7356 22.3002Z" fill="white"/>
<path d="M21.0148 41.2966C20.968 41.3161 20.9236 41.3559 20.8815 41.4162C20.8164 41.5166 20.8086 41.6299 20.8606 41.755C20.9385 41.9427 21.0991 42.0319 21.3421 42.0258C21.4757 42.0207 21.6598 41.9794 21.8926 41.9011C21.7783 41.8645 21.6812 41.807 21.6032 41.7293C21.5252 41.6517 21.4608 41.5516 21.4099 41.4291C21.3016 41.1684 21.3013 40.9178 21.4075 40.6781C21.5151 40.4377 21.7055 40.2609 21.9799 40.1469C22.253 40.0334 22.529 40.0151 22.8048 40.0916C23.0806 40.1681 23.2915 40.3785 23.4344 40.7227C23.5882 41.0929 23.5466 41.4296 23.3114 41.7336C23.1277 41.9704 22.8437 42.1678 22.4626 42.3261C22.2389 42.419 22.053 42.4855 21.9058 42.5238C21.642 42.5936 21.4081 42.6143 21.2023 42.5852C21.0259 42.5606 20.8673 42.4981 20.7251 42.3982C20.583 42.2983 20.4724 42.1532 20.3939 41.9642C20.2807 41.6917 20.2605 41.4449 20.3326 41.2254C20.4046 41.006 20.5527 40.8375 20.7755 40.7205L21.0148 41.2966ZM22.9495 41.2955C23.0145 41.1692 23.0189 41.0404 22.9643 40.9088C22.9112 40.781 22.8208 40.6994 22.6943 40.6663C22.5677 40.6333 22.4272 40.6474 22.2737 40.7111C22.102 40.7824 21.9893 40.8781 21.9329 40.9994C21.8765 41.1206 21.8738 41.2425 21.9241 41.3637C21.9653 41.4628 22.0309 41.5364 22.1208 41.5877C22.2551 41.6649 22.4201 41.6621 22.6152 41.5811C22.775 41.5178 22.8859 41.4213 22.9495 41.2955Z" fill="white"/>
<path d="M19.5247 38.7334C19.7252 38.4744 20.067 38.2437 20.5509 38.0428C21.0347 37.8418 21.438 37.7629 21.7617 37.8043C22.0854 37.8456 22.3248 38.0549 22.4797 38.4277C22.6351 38.8018 22.6138 39.1178 22.4147 39.3763C22.2155 39.6348 21.875 39.8649 21.3911 40.0659C20.9073 40.2668 20.5026 40.3462 20.1777 40.3055C19.8527 40.2647 19.612 40.0559 19.4571 39.6831C19.3017 39.309 19.3243 38.9924 19.5247 38.7334ZM21.8835 39.0742C22.039 38.9455 22.0816 38.7948 22.0102 38.6227C21.9387 38.4506 21.8024 38.3758 21.602 38.3964C21.4016 38.4169 21.1333 38.4978 20.7964 38.6377C20.444 38.7841 20.1934 38.9188 20.0452 39.043C19.8983 39.1667 19.8591 39.3144 19.9305 39.4865C20.002 39.6585 20.1331 39.7355 20.3268 39.7208C20.5186 39.7053 20.7919 39.6254 21.1457 39.4785C21.4825 39.3386 21.7281 39.203 21.8835 39.0742Z" fill="white"/>
<path d="M21.1107 33.0095C21.2518 33.0151 21.3671 32.9917 21.4561 32.9379C21.5451 32.8841 21.604 32.7909 21.634 32.6577C21.6675 32.5032 21.6398 32.3741 21.5491 32.2696C21.4584 32.1651 21.3313 32.0941 21.1665 32.0571C21.0048 32.0203 20.8603 32.0284 20.7317 32.0787C20.6032 32.1291 20.522 32.2346 20.4863 32.3946C20.469 32.4706 20.465 32.538 20.4716 32.5979C20.4846 32.7026 20.5334 32.7908 20.6176 32.8613L20.4675 33.4142L18.7686 32.8009L19.1546 31.0571L19.6826 31.1756L19.3966 32.4697L20.0633 32.7384C20.0223 32.6286 19.9965 32.5446 19.9886 32.4852C19.9752 32.3868 19.9831 32.2735 20.0116 32.144C20.0689 31.8817 20.2083 31.6741 20.427 31.5175C20.6461 31.3623 20.9237 31.3219 21.2596 31.3964C21.552 31.4614 21.7922 31.6138 21.9815 31.8531C22.1696 32.0929 22.2222 32.3996 22.1395 32.7733C22.0726 33.0747 21.9374 33.3035 21.7331 33.4617C21.5284 33.6186 21.2762 33.676 20.9737 33.6304L21.1107 33.0095Z" fill="white"/>
<path d="M21.1614 27.5841L20.8215 27.3126C20.9395 27.1489 21.0185 27.0306 21.0546 26.956C21.112 26.8373 21.1334 26.7199 21.1174 26.6043C21.1072 26.5245 21.0717 26.4429 21.013 26.3603C20.9773 26.311 20.9499 26.278 20.9271 26.26L21.2611 25.8415L23.7963 27.8698L23.3875 28.3835L21.6381 26.9841L21.1614 27.5841Z" fill="white"/>
<path d="M23.4288 23.7872C23.76 23.8392 24.1358 24.0316 24.5541 24.3668C24.9724 24.7021 25.2424 25.0255 25.3642 25.3371C25.486 25.6488 25.4185 25.9672 25.1599 26.2917C24.9012 26.6161 24.6062 26.754 24.2769 26.7027C23.9462 26.6521 23.5723 26.4604 23.154 26.1252C22.7357 25.79 22.4644 25.4671 22.342 25.1542C22.2184 24.8418 22.2872 24.5228 22.5458 24.1983C22.8021 23.8718 23.0977 23.7353 23.4288 23.7872ZM24.2862 26.0753C24.4792 26.151 24.6347 26.1139 24.7529 25.9655C24.8712 25.817 24.8721 25.6577 24.7544 25.488C24.6366 25.3184 24.4327 25.1173 24.1406 24.884C23.8347 24.6396 23.5905 24.4812 23.4072 24.4106C23.2233 24.3388 23.0721 24.3786 22.9539 24.5271C22.8356 24.6756 22.831 24.8334 22.939 24.9979C23.0475 25.1638 23.2544 25.3682 23.5602 25.6126C23.8518 25.8446 24.0944 25.999 24.2862 26.0753Z" fill="white"/>
<path d="M27.3906 21.2904L27.2238 20.8889C27.4066 20.8039 27.5299 20.7374 27.597 20.6896C27.7045 20.6144 27.7791 20.5223 27.8202 20.412C27.8487 20.3375 27.8567 20.2501 27.8466 20.1488C27.84 20.0889 27.8298 20.0458 27.8189 20.0197L28.3106 19.8155L29.5569 22.8162L28.9534 23.0669L28.0942 20.9982L27.3906 21.2904Z" fill="white"/>
<path d="M30.6728 21.4128C30.7493 21.5308 30.8346 21.6115 30.9302 21.6543C31.0252 21.6959 31.1361 21.6911 31.2622 21.6387C31.4079 21.5782 31.4973 21.4814 31.5313 21.3466C31.564 21.2123 31.5494 21.067 31.4844 20.9106C31.4211 20.7581 31.3318 20.6423 31.2164 20.5664C31.101 20.4906 30.9675 20.4849 30.8167 20.5476C30.7451 20.5773 30.6878 20.6118 30.6421 20.6522C30.5632 20.7231 30.5203 20.8143 30.5103 20.9224L29.972 21.117L29.4932 19.3732L31.1398 18.6893L31.3477 19.1899L30.1251 19.6976L30.2908 20.3976C30.3569 20.2998 30.4109 20.2316 30.4541 20.1923C30.5269 20.1253 30.6226 20.0657 30.7449 20.0149C30.992 19.9123 31.2425 19.906 31.4965 19.9962C31.7505 20.0863 31.9423 20.291 32.0749 20.6103C32.1902 20.888 32.2046 21.1724 32.1182 21.4635C32.0304 21.7552 31.8119 21.9744 31.4581 22.1213C31.1733 22.2396 30.9086 22.2594 30.6618 22.1831C30.4164 22.1062 30.2232 21.9312 30.0855 21.6582L30.6733 21.4141L30.6728 21.4128Z" fill="white"/>
<path d="M34.0553 20.6864C34.1929 20.4963 34.4545 20.322 34.8387 20.1639C35.1716 20.0256 35.391 19.9223 35.4968 19.8539C35.6577 19.7458 35.7581 19.6093 35.7954 19.4456C35.8267 19.3118 35.8148 19.1914 35.7621 19.0865C35.7088 18.9802 35.6131 18.9114 35.4746 18.8788C35.2856 18.8351 35.1407 18.8754 35.0399 18.9998C34.9812 19.0715 34.929 19.1956 34.8802 19.3718L34.2768 19.2296C34.3489 18.9627 34.4484 18.7579 34.574 18.6125C34.8129 18.3359 35.1437 18.2475 35.5676 18.3465C35.902 18.4247 36.1464 18.5799 36.3009 18.8123C36.4553 19.0446 36.4981 19.3127 36.4264 19.6176C36.3724 19.8509 36.2542 20.0437 36.0721 20.1927C35.9516 20.2916 35.7703 20.3914 35.5261 20.4898L35.2368 20.6084C35.0555 20.6822 34.9304 20.7372 34.8616 20.7734C34.7927 20.8096 34.7308 20.8552 34.6764 20.9114L36.055 21.2345L35.9287 21.7822L33.7658 21.2744C33.8231 21.0488 33.92 20.8527 34.0553 20.6864Z" fill="white"/>
<path d="M38.8223 19.5517C38.9176 19.8728 38.9054 20.2951 38.7847 20.816C38.6628 21.3374 38.4897 21.7211 38.2618 21.9655C38.0339 22.2099 37.72 22.2838 37.3179 22.1895C36.9157 22.0951 36.6667 21.8883 36.5701 21.5677C36.4736 21.2471 36.4863 20.8261 36.6082 20.3047C36.7302 19.7833 36.9046 19.3991 37.1319 19.1534C37.3592 18.9076 37.674 18.8319 38.0761 18.9263C38.4774 19.0224 38.7252 19.2298 38.8223 19.5517ZM37.135 21.3086C37.1491 21.5152 37.2498 21.64 37.4338 21.6828C37.6178 21.7256 37.762 21.658 37.8629 21.4786C37.9655 21.2999 38.0583 21.0276 38.1427 20.6654C38.2316 20.2846 38.2686 19.9956 38.2525 19.799C38.2378 19.6019 38.138 19.4829 37.9535 19.4388C37.7695 19.396 37.6262 19.4585 37.5242 19.6278C37.4221 19.797 37.3273 20.0718 37.2385 20.4526C37.1551 20.8173 37.1196 21.1026 37.135 21.3086Z" fill="white"/>
<path d="M41.4109 22.3036C41.6085 22.1773 41.915 22.1111 42.3304 22.1052C42.6908 22.0991 42.9331 22.0841 43.0562 22.0574C43.2467 22.0165 43.3893 21.9267 43.4842 21.788C43.5621 21.6746 43.5953 21.5599 43.584 21.4408C43.5732 21.323 43.5087 21.2229 43.393 21.1426C43.2327 21.0319 43.0847 21.017 42.9434 21.0955C42.8632 21.1411 42.7675 21.2374 42.6589 21.3834L42.1495 21.0309C42.3139 20.8098 42.4826 20.6542 42.6516 20.5656C42.9747 20.3962 43.3157 20.435 43.6731 20.6824C43.9558 20.8783 44.1272 21.1113 44.1854 21.3836C44.245 21.6554 44.1861 21.9213 44.0079 22.1787C43.8717 22.3759 43.6918 22.5118 43.4683 22.5832C43.3204 22.6309 43.1146 22.6568 42.8522 22.6603L42.5394 22.6634C42.3434 22.6653 42.2072 22.6714 42.1296 22.6792C42.052 22.6869 41.978 22.707 41.9062 22.7399L43.072 23.5456L42.7533 24.0082L40.9257 22.7436C41.0626 22.5553 41.2243 22.4087 41.4109 22.3036Z" fill="white"/>
<path d="M44.0194 23.8292C43.9613 23.9573 43.9406 24.0728 43.9562 24.1764C43.9731 24.2794 44.0363 24.3693 44.1497 24.4476C44.2799 24.5372 44.4097 24.5597 44.541 24.5159C44.6717 24.4707 44.7847 24.3795 44.8809 24.2402C44.975 24.1033 45.0217 23.9662 45.0243 23.8291C45.025 23.6912 44.9585 23.5752 44.8235 23.4815C44.7596 23.4377 44.6997 23.4075 44.6409 23.3907C44.538 23.3632 44.4392 23.3751 44.3429 23.4258L43.8875 23.0785L45.0911 21.7319L46.5599 22.7496L46.2524 23.1952L45.1614 22.4409L44.6645 22.9591C44.7817 22.9623 44.8689 22.9704 44.9254 22.9852C45.021 23.0097 45.1224 23.0593 45.2328 23.1342C45.4534 23.2871 45.5944 23.4945 45.6559 23.7563C45.7173 24.0181 45.651 24.2917 45.4559 24.5745C45.2853 24.8211 45.0553 24.9869 44.7627 25.0718C44.4714 25.1561 44.1678 25.0896 43.8518 24.8724C43.5975 24.6968 43.4359 24.4842 43.3673 24.2345C43.2987 23.9849 43.3404 23.7291 43.495 23.4662L44.0194 23.8292Z" fill="white"/>
<path d="M47.4185 27.6476C47.2978 27.6947 47.2065 27.754 47.1423 27.8235C47.0254 27.9531 47.003 28.1122 47.0789 28.3022C47.1245 28.4193 47.2039 28.504 47.3187 28.5603C47.433 28.6152 47.5638 28.6144 47.7145 28.5549C47.9125 28.4772 48.0145 28.3446 48.0174 28.157C48.019 28.0508 47.9803 27.8988 47.9035 27.703L48.3282 27.5358C48.4065 27.7279 48.4786 27.8539 48.543 27.9173C48.6537 28.0257 48.7963 28.0459 48.9742 27.9751C49.0898 27.9301 49.1699 27.8587 49.2156 27.7632C49.2614 27.6678 49.2601 27.5583 49.2129 27.4373C49.1576 27.2967 49.0732 27.211 48.9584 27.1807C48.8437 27.1505 48.7126 27.1652 48.5656 27.2262L48.3475 26.6718C48.499 26.6181 48.6514 26.5884 48.8041 26.5815C48.941 26.5843 49.0796 26.6169 49.221 26.682C49.3224 26.7315 49.4128 26.8025 49.4923 26.8948C49.5719 26.9871 49.6416 27.111 49.7029 27.2659C49.8168 27.5548 49.8328 27.8172 49.7539 28.0532C49.6745 28.2879 49.5094 28.4559 49.2575 28.5544C49.0803 28.6234 48.9093 28.6302 48.7466 28.5725C48.6443 28.5355 48.5643 28.4862 48.5085 28.4253C48.5294 28.4792 48.5146 28.5756 48.4608 28.7141C48.3802 28.9203 48.2188 29.0714 47.9765 29.1674C47.7208 29.2675 47.4625 29.2663 47.1985 29.1666C46.9352 29.065 46.7353 28.8408 46.5989 28.494C46.4302 28.0658 46.4533 27.7138 46.6668 27.4387C46.7799 27.2924 46.9553 27.1675 47.1911 27.0635L47.4185 27.6476Z" fill="white"/>
<path d="M50.5644 30.6434C50.3543 30.9049 50.0007 31.1328 49.5026 31.3289C49.0046 31.5251 48.591 31.5976 48.2609 31.5482C47.9308 31.4988 47.69 31.2825 47.5386 30.896C47.3878 30.5108 47.4152 30.1876 47.624 29.9267C47.8328 29.6657 48.1852 29.4383 48.6832 29.2422C49.1812 29.046 49.5962 28.973 49.9275 29.0219C50.2589 29.0707 50.4997 29.2871 50.6524 29.673C50.8032 30.0582 50.7745 30.3819 50.5644 30.6434ZM48.1601 30.2481C47.9989 30.3777 47.9524 30.53 48.0229 30.7071C48.0915 30.8834 48.23 30.9634 48.4346 30.9457C48.6397 30.9293 48.9154 30.8514 49.2628 30.7148C49.6258 30.5717 49.8845 30.4382 50.0377 30.315C50.1908 30.1918 50.2322 30.0417 50.1635 29.8654C50.0949 29.6891 49.9611 29.6056 49.7637 29.6187C49.5664 29.6319 49.2864 29.7069 48.9222 29.8506C48.5756 29.9854 48.3213 30.1185 48.1601 30.2481Z" fill="white"/>
<path d="M49.3571 34.6648C49.2294 34.6475 49.1191 34.6535 49.0293 34.6832C48.8631 34.7385 48.7671 34.867 48.7398 35.0694C48.723 35.1941 48.7517 35.3074 48.8236 35.4106C48.8959 35.515 49.0116 35.577 49.1718 35.5991C49.3833 35.6275 49.5362 35.5624 49.6289 35.4001C49.6821 35.3077 49.7234 35.1576 49.7511 34.9489L50.2035 35.0101C50.1792 35.2159 50.1799 35.3608 50.2054 35.448C50.2489 35.5966 50.3647 35.6845 50.5537 35.7099C50.6763 35.7262 50.7801 35.7045 50.8677 35.6437C50.9535 35.5821 51.0068 35.4866 51.0233 35.3574C51.0437 35.2083 51.0107 35.0921 50.9261 35.0096C50.8415 34.927 50.7194 34.8753 50.5609 34.8571L50.6403 34.2663C50.7994 34.2934 50.9464 34.3424 51.0831 34.411C51.2015 34.4795 51.306 34.5767 51.3977 34.7021C51.4621 34.7946 51.5065 34.9015 51.5304 35.0215C51.5556 35.1409 51.5565 35.2827 51.5337 35.4481C51.4922 35.7557 51.3786 35.9924 51.1946 36.159C51.0107 36.3256 50.7845 36.3905 50.5174 36.3532C50.3284 36.3277 50.1766 36.2486 50.0618 36.119C49.9897 36.0374 49.9449 35.9551 49.9252 35.8747C49.9174 35.9329 49.8572 36.0084 49.7439 36.1028C49.5737 36.2438 49.3579 36.2968 49.0989 36.2607C48.8273 36.2237 48.6005 36.0962 48.4204 35.8791C48.2403 35.662 48.1752 35.3696 48.2242 34.9993C48.2854 34.5444 48.4764 34.248 48.7979 34.1114C48.9682 34.0407 49.1822 34.016 49.4394 34.0406L49.3571 34.6648Z" fill="white"/>
<path d="M48.8878 37.1844C48.7471 37.1909 48.6343 37.224 48.5498 37.285C48.4654 37.3461 48.4144 37.4437 48.3962 37.5796C48.3746 37.7369 48.4145 37.8624 48.5132 37.9605C48.6127 38.0568 48.7449 38.118 48.9126 38.14C49.0759 38.1624 49.2206 38.1436 49.3429 38.082C49.4666 38.02 49.5394 37.9088 49.5607 37.7471C49.5711 37.6694 49.5707 37.6023 49.5583 37.5432C49.5365 37.4392 49.4804 37.3555 49.3919 37.2929L49.4947 36.7291L51.2389 37.1983L50.9996 38.9682L50.4628 38.8947L50.6401 37.5815L49.9531 37.3701C50.0032 37.4761 50.0355 37.5575 50.0491 37.616C50.0709 37.7125 50.0724 37.8264 50.0552 37.9574C50.0191 38.223 49.8984 38.4428 49.6931 38.6167C49.4878 38.7907 49.2137 38.8541 48.8722 38.8064C48.5749 38.7663 48.3232 38.634 48.115 38.4117C47.9081 38.1889 47.8286 37.8872 47.8801 37.5082C47.9208 37.2024 48.0378 36.9628 48.2274 36.7877C48.4175 36.614 48.666 36.5368 48.9698 36.5558L48.8878 37.1844Z" fill="white"/>
<path d="M46.3063 42.637L46.5171 42.337L45.9469 41.9334L46.3069 41.4232L46.8771 41.8268L47.6167 40.7768L48.072 41.0982L48.9938 43.2112L48.5813 43.7967L46.9248 42.6246L46.714 42.9247L46.3063 42.637ZM47.284 42.1163L48.425 42.9247L47.7504 41.4549L47.284 42.1163Z" fill="white"/>
<path d="M46.7317 45.7357C46.3979 45.7032 46.0131 45.5329 45.576 45.2223C45.1395 44.9129 44.8506 44.6065 44.7093 44.303C44.5679 43.9995 44.6179 43.6791 44.856 43.3418C45.0941 43.0045 45.3794 42.8508 45.7114 42.8826C46.0433 42.9144 46.4282 43.0847 46.866 43.3934C47.3025 43.7028 47.5932 44.0099 47.7346 44.3135C47.8764 44.6183 47.8278 44.9381 47.5902 45.2767C47.3514 45.6159 47.0655 45.7683 46.7317 45.7357ZM45.7376 43.5075C45.5413 43.4423 45.3883 43.489 45.2785 43.6432C45.1692 43.7986 45.1785 43.9568 45.3056 44.1195C45.4326 44.2822 45.6495 44.4703 45.9542 44.6861C46.2739 44.9125 46.5268 45.0551 46.7139 45.1165C46.901 45.1778 47.0503 45.1296 47.1583 44.9747C47.2676 44.8192 47.2625 44.6639 47.1447 44.505C47.0268 44.3461 46.8083 44.1541 46.4886 43.9277C46.1852 43.7114 45.9347 43.5709 45.7376 43.5075Z" fill="white"/>
<path d="M41.1056 47.2471L41.4438 47.1066L41.1758 46.4614L41.752 46.2221L42.02 46.8673L43.2048 46.3752L43.4186 46.8901L43.0747 49.1681L42.414 49.4426L41.6355 47.5681L41.2973 47.7085L41.1056 47.2471ZM42.2129 47.3282L42.7495 48.62L42.9607 47.0176L42.2129 47.3282Z" fill="white"/>
<path d="M40.3336 47.7528C40.2571 47.6347 40.1717 47.554 40.0762 47.5112C39.9812 47.4697 39.8703 47.4744 39.7441 47.5268C39.5985 47.5873 39.509 47.6841 39.4751 47.819C39.4424 47.9533 39.457 48.0985 39.522 48.2549C39.5853 48.4075 39.6759 48.5227 39.79 48.5991C39.9053 48.675 40.0376 48.6812 40.1897 48.618C40.2612 48.5883 40.3186 48.5538 40.3643 48.5134C40.4431 48.4424 40.4861 48.3512 40.4961 48.2431L41.0344 48.0486L41.5132 49.7923L39.8666 50.4762L39.6587 49.9757L40.8813 49.4679L40.7156 48.7679C40.6489 48.8644 40.5954 48.934 40.5523 48.9733C40.4795 49.0402 40.3838 49.0998 40.2615 49.1506C40.0144 49.2533 39.7638 49.2595 39.5099 49.1694C39.2559 49.0792 39.0641 48.8746 38.9315 48.5552C38.8162 48.2776 38.8017 47.9932 38.8882 47.702C38.976 47.4103 39.1945 47.1912 39.5483 47.0442C39.8331 46.9259 40.0978 46.9061 40.3446 46.9825C40.5913 47.0588 40.7831 47.2344 40.9209 47.5073L40.333 47.7515L40.3336 47.7528Z" fill="white"/>
<path d="M35.1921 49.098C35.1886 48.9574 35.1579 48.8432 35.0994 48.7575C35.0409 48.6717 34.9436 48.6174 34.8086 48.597C34.6531 48.5714 34.5249 48.6079 34.4266 48.7053C34.3277 48.8014 34.2655 48.9342 34.2382 49.0999C34.2117 49.2637 34.2289 49.4079 34.2872 49.5335C34.3454 49.6591 34.4559 49.734 34.6176 49.76C34.6945 49.7724 34.762 49.7734 34.8202 49.763C34.9232 49.7431 35.0091 49.6891 35.0733 49.6013L35.6329 49.7189L35.1276 51.4541L33.3661 51.1709L33.4505 50.6361L34.7578 50.8465L34.9838 50.1643C34.8769 50.2117 34.7947 50.2413 34.737 50.253C34.6397 50.272 34.5267 50.2716 34.3961 50.2509C34.1312 50.2081 33.9144 50.0826 33.7464 49.8727C33.5784 49.6628 33.5204 49.3873 33.5743 49.0471C33.622 48.7506 33.7579 48.5016 33.9848 48.2988C34.2117 48.0961 34.5134 48.0258 34.892 48.0855C35.1962 48.135 35.4328 48.2568 35.6038 48.4517C35.7734 48.6472 35.8452 48.8971 35.8204 49.2008L35.1921 49.098Z" fill="white"/>
<path d="M31.0119 50.4155C30.8935 50.1009 30.8758 49.6803 30.9592 49.1505C31.0432 48.6219 31.1899 48.2263 31.3992 47.9666C31.6086 47.7069 31.9172 47.6093 32.3258 47.675C32.7343 47.7407 32.9972 47.9295 33.1165 48.2422C33.2357 48.555 33.2533 48.9756 33.1681 49.5047C33.0847 50.0345 32.9374 50.4289 32.7273 50.6904C32.5172 50.9519 32.2085 51.0495 31.8013 50.9833C31.3933 50.9189 31.1298 50.7288 31.0119 50.4155ZM32.5696 48.5412C32.5409 48.3361 32.4328 48.219 32.2448 48.1886C32.0586 48.1589 31.92 48.2364 31.8313 48.423C31.7426 48.6096 31.6685 48.8865 31.6095 49.2548C31.5487 49.6408 31.5323 49.9319 31.5599 50.1268C31.5888 50.3211 31.6966 50.4338 31.8833 50.4647C32.0694 50.4944 32.2084 50.4214 32.2983 50.245C32.3882 50.0685 32.4638 49.788 32.5246 49.4021C32.5836 49.0337 32.5984 48.7463 32.5696 48.5412Z" fill="white"/>
<path d="M28.559 46.9439C28.6092 46.8115 28.6236 46.6955 28.601 46.5933C28.5783 46.4911 28.5091 46.4052 28.3928 46.3343C28.2582 46.2527 28.1266 46.237 27.9979 46.2905C27.8699 46.3421 27.7614 46.4407 27.675 46.5851C27.5888 46.7263 27.5494 46.8665 27.5576 47.0037C27.5645 47.1415 27.6382 47.253 27.7789 47.3382C27.8456 47.3778 27.9075 47.4056 27.966 47.4179C28.0694 47.4392 28.1685 47.4209 28.2609 47.3642L28.7352 47.6838L27.6135 49.0989L26.0873 48.1707L26.3676 47.7074L27.4998 48.3956L27.9665 47.8487C27.8493 47.8531 27.7624 47.8494 27.7045 47.8383C27.6079 47.8188 27.5029 47.7753 27.3889 47.7065C27.1604 47.5676 27.0062 47.3688 26.9293 47.1103C26.8525 46.8518 26.9025 46.5758 27.0802 46.2804C27.2357 46.0232 27.4559 45.8446 27.7427 45.7423C28.0296 45.6399 28.3364 45.6883 28.6636 45.8886C28.9267 46.0484 29.1009 46.2511 29.1856 46.4956C29.2691 46.7407 29.2418 46.9981 29.1036 47.271L28.559 46.9439Z" fill="white"/>
<path d="M26.3793 45.6208C26.4295 45.4883 26.4438 45.3723 26.4212 45.2702C26.3986 45.168 26.3294 45.0821 26.213 45.0112C26.0785 44.9296 25.9469 44.9139 25.8181 44.9674C25.6901 45.019 25.5816 45.1176 25.4952 45.262C25.409 45.4032 25.3696 45.5434 25.3765 45.6811C25.3834 45.8189 25.4572 45.9304 25.5978 46.0157C25.6646 46.0552 25.7264 46.083 25.7849 46.0954C25.8883 46.1166 25.9875 46.0984 26.0798 46.0417L26.5542 46.3612L25.4324 47.7763L23.9063 46.8482L24.1865 46.3848L25.3188 47.0731L25.7855 46.5262C25.6683 46.5305 25.5814 46.5268 25.5234 46.5158C25.4269 46.4963 25.3219 46.4528 25.2079 46.3839C24.9794 46.245 24.8252 46.0462 24.7483 45.7877C24.6714 45.5292 24.7215 45.2532 24.8992 44.9578C25.0547 44.7006 25.2748 44.5221 25.5617 44.4197C25.8486 44.3174 26.1554 44.3657 26.4826 44.5661C26.7462 44.7271 26.9198 44.9286 27.0033 45.1736C27.0868 45.4186 27.0595 45.676 26.9212 45.949L26.3793 45.6208Z" fill="white"/>
<path d="M34.4065 33.1667C35.3494 32.7751 36.4306 33.2231 36.8232 34.1682C37.2157 35.1133 36.7701 36.1955 35.8272 36.5872C34.8842 36.9788 33.8024 36.5294 33.4104 35.5857C33.0179 34.6406 33.4636 33.5584 34.4065 33.1667Z" fill="#3F3F3F"/>
<path d="M23.4609 39.1451L23.8485 40.0784L25.6238 39.3411L25.2361 38.4077L23.4609 39.1451Z" fill="#FECE00"/>
<path d="M44.1092 30.4083L44.4969 31.3417L46.2722 30.6043L45.8845 29.671L44.1092 30.4083Z" fill="#FECE00"/>
<path d="M38.66 44.5275L39.399 46.3068L40.3303 45.92L39.5912 44.1407L38.66 44.5275Z" fill="#FECE00"/>
<path d="M29.9046 23.8334L30.6437 25.6127L31.5749 25.2259L30.8358 23.4466L29.9046 23.8334Z" fill="#FECE00"/>
<path d="M26.9871 44.4629L27.7885 45.0778L28.9563 43.5495L28.155 42.9347L26.9871 44.4629Z" fill="#FECE00"/>
<path d="M40.4909 26.5502L41.2922 27.165L42.4601 25.6368L41.6587 25.0219L40.4909 26.5502Z" fill="#FECE00"/>
<path d="M42.8231 41.5178L44.3508 42.69L44.9634 41.8884L43.4357 40.7162L42.8231 41.5178Z" fill="#FECE00"/>
<path d="M24.9147 27.961L26.4424 29.1334L27.0551 28.3318L25.5274 27.1594L24.9147 27.961Z" fill="#FECE00"/>
<path d="M32.9958 46.9382L33.9962 47.0698L34.2435 45.1601L33.2432 45.0285L32.9958 46.9382Z" fill="#FECE00"/>
<path d="M35.74 24.6478L36.7403 24.7795L36.9879 22.87L35.9877 22.7383L35.74 24.6478Z" fill="#FECE00"/>
<path d="M45.2291 36.4544L47.136 36.7055L47.266 35.7039L45.359 35.4528L45.2291 36.4544Z" fill="#FECE00"/>
<path d="M22.9706 33.6713L24.8775 33.9224L25.0074 32.9207L23.1005 32.6696L22.9706 33.6713Z" fill="#FECE00"/>
<path d="M35.3014 35.3215C35.3014 35.3215 30.0917 35.2615 28.2552 34.7023C26.4192 34.1443 24.41 33.5329 24.3805 33.2747C24.351 33.0164 27.2781 32.7941 28.9983 33.0073C31.1544 33.2749 35.3804 34.3992 35.3804 34.3992L35.3014 35.3215Z" fill="#3F3F3F"/>
<path d="M34.9352 34.6345C34.9352 34.6345 37.1346 31.6836 38.2239 30.8659C39.3131 30.0482 40.5062 29.1537 40.6699 29.2432C40.8342 29.3339 39.749 31.0975 38.9096 31.9918C37.8562 33.1125 35.4419 35.0614 35.4419 35.0614L34.9352 34.6345Z" fill="#3F3F3F"/>
<path d="M34.9311 35.3147L44.0046 43.8436L44.2499 43.5935L35.2299 35.1494L34.9311 35.3147Z" fill="#3F3F3F"/>
<path d="M34.5992 34.5157C35.0401 34.3326 35.5454 34.5431 35.7284 34.9837C35.9114 35.4243 35.7026 35.9313 35.263 36.1139C34.8221 36.297 34.3169 36.0865 34.1339 35.6459C33.9509 35.2054 34.1583 34.6989 34.5992 34.5157Z" fill="white"/>
<path opacity="0.5" d="M51.2398 48.0863C42.6211 56.9574 28.9779 57.6598 20.7662 49.6564C14.7734 43.8157 12.2196 34.5903 15.2258 26.7787C11.324 34.9638 13.6393 45.054 20.0599 51.3116C28.2715 59.315 41.9161 58.612 50.5335 49.7415C52.862 47.3437 54.5807 44.594 55.6936 41.7001C54.6057 43.986 53.1195 46.1501 51.2398 48.0863Z" fill="white"/>
<path opacity="0.4" d="M54.0509 34.3124C54.0509 34.3124 55.2875 28.7092 50.592 21.8284C46.2479 15.4633 40.7424 14.5297 37.6083 13.9561C33.1438 13.1388 27.101 15.2696 23.2537 18.5962C19.405 21.9233 18.303 24.8617 18.303 24.8617C18.303 24.8617 18.9738 23.3267 22.5628 20.4391C26.7613 17.0583 28.767 16.4132 32.1901 16.0965C35.6127 15.7784 38.4375 15.244 42.4505 17.1552C47.6418 19.627 49.9918 22.4872 51.4215 25.2208C53.5986 29.3939 54.0509 34.3124 54.0509 34.3124Z" fill="#BC802F"/>
<path d="M52.8706 27.318C56.9767 37.204 52.2926 48.5797 42.429 52.6766C32.5654 56.7734 21.2003 52.0636 17.0942 42.1777C12.9881 32.2917 17.6721 20.916 27.5357 16.8192C37.3993 12.7223 48.7645 17.4321 52.8706 27.318ZM17.8875 41.8482C21.8117 51.2961 32.674 55.7975 42.1006 51.8822C51.5272 47.9669 56.004 37.0944 52.0798 27.6465C48.1556 18.1985 37.2934 13.6971 27.8667 17.6125C18.4388 21.5283 13.9628 32.3989 17.8875 41.8482Z" fill="#FFE577"/>
<path d="M26.4532 10.2916C27.2192 9.97346 28.0978 10.3376 28.4167 11.1053C28.7356 11.8731 28.3735 12.7526 27.6075 13.0708L25.1025 14.1112C24.3365 14.4293 23.4579 14.0652 23.139 13.2975C22.8201 12.5297 23.1822 11.6502 23.9482 11.332L26.4532 10.2916Z" fill="#FECE00"/>
<path opacity="0.3" d="M25.5839 12.0282C26.0053 11.8532 26.4443 11.9445 26.5639 12.2326C26.6836 12.5206 26.4384 12.896 26.0171 13.0711L24.6384 13.6437C24.2171 13.8187 23.7781 13.7274 23.6584 13.4393C23.5388 13.1513 23.7839 12.7759 24.2053 12.6008L25.5839 12.0282Z" fill="white"/>
<path d="M22.9006 54.0978C22.9006 54.0978 17.9163 56.1298 15.6598 57.0671C15.1148 57.2934 13.0995 53.3114 13.9451 52.8471C15.4572 52.0157 19.3386 50.6069 19.3386 50.6069L22.9006 54.0978Z" fill="#FECE00"/>
<path d="M12.7464 29.6502C12.7464 29.6502 7.72007 31.8602 5.46226 32.798C4.91731 33.0243 6.40634 37.2004 7.33394 36.9298C8.99006 36.4452 12.7063 34.6387 12.7063 34.6387L12.7464 29.6502Z" fill="#FECE00"/>
<path opacity="0.4" d="M16.3484 56.8194C16.6823 57.2049 17.1484 57.3797 17.5398 57.2171C17.9313 57.0545 18.1369 56.6023 18.0989 56.0923L16.3484 56.8194Z" fill="white"/>
<path opacity="0.4" d="M8.00638 31.7932C7.67241 31.4076 7.20638 31.2329 6.8149 31.3955C6.42343 31.5581 6.21782 32.0103 6.2558 32.5203L8.00638 31.7932Z" fill="white"/>
<path opacity="0.4" d="M14.512 55.0525C14.512 55.0525 15.1798 56.4732 15.5586 56.5482C15.9375 56.6231 22.1487 53.811 22.1487 53.811L21.2223 53.1519C21.2223 53.1519 16.1191 55.8232 15.5991 55.7167C15.0082 55.5938 14.9398 55.5244 14.512 55.0525Z" fill="white"/>
<path opacity="0.4" d="M6.0988 34.7895C6.0988 34.7895 6.7221 36.224 7.10223 36.2985C7.48106 36.3735 12.0825 34.2896 12.0825 34.2896L12.3947 33.1175C12.3947 33.1175 7.69559 35.4728 7.17557 35.3663C6.58338 35.2439 6.52714 35.2627 6.0988 34.7895Z" fill="white"/>
<path d="M47.1083 15.6256C47.1083 15.6256 52.0926 13.5936 54.3492 12.6564C54.8941 12.43 56.9094 16.412 56.0638 16.8764C54.5517 17.7077 50.6703 19.1166 50.6703 19.1166L47.1083 15.6256Z" fill="#FECE00"/>
<path d="M57.2631 40.0746C57.2631 40.0746 62.2895 37.8646 64.5473 36.9269C65.0922 36.7005 63.6032 32.5244 62.6756 32.795C61.0195 33.2796 57.3032 35.086 57.3032 35.086L57.2631 40.0746Z" fill="#FECE00"/>
<path opacity="0.4" d="M53.6593 12.9047C53.3254 12.5191 52.8593 12.3444 52.4679 12.507C52.0764 12.6696 51.8708 13.1218 51.9088 13.6318L53.6593 12.9047Z" fill="white"/>
<path opacity="0.4" d="M62.0313 37.9994C62.3653 38.3849 62.8313 38.5597 63.2228 38.3971C63.6142 38.2345 63.8198 37.7823 63.7819 37.2723L62.0313 37.9994Z" fill="white"/>
<path opacity="0.4" d="M55.4754 14.6263C55.4754 14.6263 56.0801 16.0748 55.8809 16.4066C55.6817 16.7385 51.2871 18.417 51.2871 18.417L50.734 17.8857C50.734 17.8857 54.9661 16.3372 55.2365 15.8795C55.5442 15.3574 55.539 15.2602 55.4754 14.6263Z" fill="white"/>
<path opacity="0.4" d="M63.8156 34.7211C63.8156 34.7211 64.4051 36.1697 64.1951 36.4938C63.9838 36.8185 57.8396 39.2818 57.8396 39.2818L58.2205 38.0583C58.2205 38.0583 63.1894 36.3415 63.4767 35.895C63.8032 35.385 63.8543 35.3576 63.8156 34.7211Z" fill="white"/>
</g>
<defs>
<clipPath id="clip0">
<rect width="49" height="54" fill="white" transform="translate(18.9026 66.4863) rotate(-112.555)"/>
</clipPath>
</defs>
</svg>
